<?xml version="1.0" encoding="UTF-8"?>
<svg xmlns="http://www.w3.org/2000/svg" xmlns:xlink="http://www.w3.org/1999/xlink" width="0" height="0">
<!-- lucide-icons -->
<!-- https://github.com/lucide-icons/lucide/blob/main/LICENSE -->
<symbol id="check"
  viewBox="0 0 24 24"
  fill="none"
  stroke="currentColor"
  stroke-width="2"
  stroke-linecap="round"
  stroke-linejoin="round"
>
  <path d="M20 6 9 17l-5-5" />
</symbol>

<symbol id="info" viewBox="0 0 24 24" fill="none" stroke="currentColor" stroke-width="2" stroke-linecap="round" stroke-linejoin="round" class="lucide lucide-info"><circle cx="12" cy="12" r="10"/><path d="M12 16v-4"/><path d="M12 8h.01"/></symbol>
<!-- lucide-icons -->
<!-- https://github.com/lucide-icons/lucide/blob/main/LICENSE -->
<symbol id="log-out"
  viewBox="0 0 24 24"
  fill="none"
  stroke="currentColor"
  stroke-width="2"
  stroke-linecap="round"
  stroke-linejoin="round"
>
  <path d="M9 21H5a2 2 0 0 1-2-2V5a2 2 0 0 1 2-2h4" />
  <polyline points="16 17 21 12 16 7" />
  <line x1="21" x2="9" y1="12" y2="12" />
</symbol>

<!-- lucide-icons -->
<!-- https://github.com/lucide-icons/lucide/blob/main/LICENSE -->
<symbol id="moon"
  viewBox="0 0 24 24"
  fill="none"
  stroke="currentColor"
  stroke-width="2"
  stroke-linecap="round"
  stroke-linejoin="round"
>
  <path d="M12 3a6 6 0 0 0 9 9 9 9 0 1 1-9-9Z" />
</symbol>

<!-- lucide-icons -->
<!-- https://github.com/lucide-icons/lucide/blob/main/LICENSE -->
<symbol id="plus"
  viewBox="0 0 24 24"
  fill="none"
  stroke="currentColor"
  stroke-width="2"
  stroke-linecap="round"
  stroke-linejoin="round"
>
  <path d="M5 12h14" />
  <path d="M12 5v14" />
</symbol>

<!-- lucide-icons -->
<!-- https://github.com/lucide-icons/lucide/blob/main/LICENSE -->
<symbol id="search"
  viewBox="0 0 24 24"
  fill="none"
  stroke="currentColor"
  stroke-width="2"
  stroke-linecap="round"
  stroke-linejoin="round"
>
  <circle cx="11" cy="11" r="8" />
  <path d="m21 21-4.3-4.3" />
</symbol>

<!-- lucide-icons -->
<!-- https://github.com/lucide-icons/lucide/blob/main/LICENSE -->
<symbol id="sun"
  viewBox="0 0 24 24"
  fill="none"
  stroke="currentColor"
  stroke-width="2"
  stroke-linecap="round"
  stroke-linejoin="round"
>
  <circle cx="12" cy="12" r="4" />
  <path d="M12 2v2" />
  <path d="M12 20v2" />
  <path d="m4.93 4.93 1.41 1.41" />
  <path d="m17.66 17.66 1.41 1.41" />
  <path d="M2 12h2" />
  <path d="M20 12h2" />
  <path d="m6.34 17.66-1.41 1.41" />
  <path d="m19.07 4.93-1.41 1.41" />
</symbol>

<!-- lucide-icons -->
<!-- https://github.com/lucide-icons/lucide/blob/main/LICENSE -->
<symbol id="x"
  viewBox="0 0 24 24"
  fill="none"
  stroke="currentColor"
  stroke-width="2"
  stroke-linecap="round"
  stroke-linejoin="round"
>
  <path d="M18 6 6 18" />
  <path d="m6 6 12 12" />
</symbol>

</svg>
